<mxfile host="app.diagrams.net" agent="Mozilla/5.0 (Windows NT 10.0; Win64; x64) AppleWebKit/537.36 (KHTML, like Gecko) Chrome/139.0.0.0 Safari/537.36" version="28.1.1">
  <diagram name="페이지-1" id="i61F9ITe4HhGrbR_6EDc">
    <mxGraphModel dx="2900" dy="1442" grid="1" gridSize="10" guides="1" tooltips="1" connect="1" arrows="1" fold="1" page="1" pageScale="1" pageWidth="827" pageHeight="1169" math="0" shadow="0">
      <root>
        <mxCell id="0" />
        <mxCell id="1" parent="0" />
        <mxCell id="NnwOBRZ_t9ozKUxlOf1y-1" value="users" style="rounded=0;whiteSpace=wrap;html=1;" parent="1" vertex="1">
          <mxGeometry x="464" y="180" width="120" height="60" as="geometry" />
        </mxCell>
        <mxCell id="NnwOBRZ_t9ozKUxlOf1y-2" value="posts" style="rounded=0;whiteSpace=wrap;html=1;" parent="1" vertex="1">
          <mxGeometry x="454" y="430" width="120" height="60" as="geometry" />
        </mxCell>
        <mxCell id="NnwOBRZ_t9ozKUxlOf1y-3" value="categories" style="rounded=0;whiteSpace=wrap;html=1;" parent="1" vertex="1">
          <mxGeometry x="470" y="790" width="120" height="60" as="geometry" />
        </mxCell>
        <mxCell id="NnwOBRZ_t9ozKUxlOf1y-4" value="views" style="rounded=0;whiteSpace=wrap;html=1;" parent="1" vertex="1">
          <mxGeometry x="340" y="995" width="120" height="60" as="geometry" />
        </mxCell>
        <mxCell id="NnwOBRZ_t9ozKUxlOf1y-5" value="hashtags" style="rounded=0;whiteSpace=wrap;html=1;" parent="1" vertex="1">
          <mxGeometry x="1059" y="170" width="120" height="60" as="geometry" />
        </mxCell>
        <mxCell id="NnwOBRZ_t9ozKUxlOf1y-6" value="likes" style="rounded=0;whiteSpace=wrap;html=1;" parent="1" vertex="1">
          <mxGeometry x="1010" y="410" width="120" height="60" as="geometry" />
        </mxCell>
        <mxCell id="NnwOBRZ_t9ozKUxlOf1y-7" value="reports" style="rounded=0;whiteSpace=wrap;html=1;" parent="1" vertex="1">
          <mxGeometry x="1011" y="670" width="120" height="60" as="geometry" />
        </mxCell>
        <mxCell id="NnwOBRZ_t9ozKUxlOf1y-8" value="followers" style="rounded=0;whiteSpace=wrap;html=1;" parent="1" vertex="1">
          <mxGeometry x="1011" y="920" width="120" height="60" as="geometry" />
        </mxCell>
        <mxCell id="NnwOBRZ_t9ozKUxlOf1y-13" value="id" style="ellipse;whiteSpace=wrap;html=1;align=center;fontStyle=4;" parent="1" vertex="1">
          <mxGeometry x="330" y="210" width="100" height="40" as="geometry" />
        </mxCell>
        <mxCell id="NnwOBRZ_t9ozKUxlOf1y-14" value="" style="endArrow=none;html=1;rounded=0;entryX=-0.003;entryY=0.551;entryDx=0;entryDy=0;entryPerimeter=0;" parent="1" source="NnwOBRZ_t9ozKUxlOf1y-13" target="NnwOBRZ_t9ozKUxlOf1y-1" edge="1">
          <mxGeometry relative="1" as="geometry">
            <mxPoint x="400" y="220" as="sourcePoint" />
            <mxPoint x="420" y="219.57999999999998" as="targetPoint" />
            <Array as="points" />
          </mxGeometry>
        </mxCell>
        <mxCell id="NnwOBRZ_t9ozKUxlOf1y-17" value="" style="endArrow=none;html=1;rounded=0;entryX=0.25;entryY=0;entryDx=0;entryDy=0;exitX=1;exitY=1;exitDx=0;exitDy=0;" parent="1" source="NnwOBRZ_t9ozKUxlOf1y-49" target="NnwOBRZ_t9ozKUxlOf1y-1" edge="1">
          <mxGeometry relative="1" as="geometry">
            <mxPoint x="442.6612260358586" y="150.58910191848156" as="sourcePoint" />
            <mxPoint x="470" y="190" as="targetPoint" />
            <Array as="points" />
          </mxGeometry>
        </mxCell>
        <mxCell id="NnwOBRZ_t9ozKUxlOf1y-18" value="" style="endArrow=none;html=1;rounded=0;entryX=0.5;entryY=0;entryDx=0;entryDy=0;exitX=0.589;exitY=1.03;exitDx=0;exitDy=0;exitPerimeter=0;" parent="1" source="NnwOBRZ_t9ozKUxlOf1y-84" target="NnwOBRZ_t9ozKUxlOf1y-1" edge="1">
          <mxGeometry relative="1" as="geometry">
            <mxPoint x="521.2695569742975" y="109.99104469036308" as="sourcePoint" />
            <mxPoint x="485" y="197" as="targetPoint" />
            <Array as="points" />
          </mxGeometry>
        </mxCell>
        <mxCell id="NnwOBRZ_t9ozKUxlOf1y-19" value="" style="endArrow=none;html=1;rounded=0;entryX=0.75;entryY=0;entryDx=0;entryDy=0;exitX=0.283;exitY=0.9;exitDx=0;exitDy=0;exitPerimeter=0;" parent="1" source="NnwOBRZ_t9ozKUxlOf1y-102" target="NnwOBRZ_t9ozKUxlOf1y-1" edge="1">
          <mxGeometry relative="1" as="geometry">
            <mxPoint x="606.2888519976493" y="147.4010181507274" as="sourcePoint" />
            <mxPoint x="480" y="200" as="targetPoint" />
            <Array as="points" />
          </mxGeometry>
        </mxCell>
        <mxCell id="NnwOBRZ_t9ozKUxlOf1y-20" value="" style="endArrow=none;html=1;rounded=0;entryX=1;entryY=0.5;entryDx=0;entryDy=0;exitX=0.07;exitY=0.267;exitDx=0;exitDy=0;exitPerimeter=0;" parent="1" source="NnwOBRZ_t9ozKUxlOf1y-103" target="NnwOBRZ_t9ozKUxlOf1y-1" edge="1">
          <mxGeometry relative="1" as="geometry">
            <mxPoint x="599.3999999999999" y="223.20000000000005" as="sourcePoint" />
            <mxPoint x="493" y="260" as="targetPoint" />
            <Array as="points" />
          </mxGeometry>
        </mxCell>
        <mxCell id="NnwOBRZ_t9ozKUxlOf1y-21" value="users" style="shape=table;startSize=30;container=1;collapsible=1;childLayout=tableLayout;fixedRows=1;rowLines=0;fontStyle=1;align=center;resizeLast=1;html=1;" parent="1" vertex="1">
          <mxGeometry x="-720" y="30" width="180" height="180" as="geometry" />
        </mxCell>
        <mxCell id="NnwOBRZ_t9ozKUxlOf1y-22" value="" style="shape=tableRow;horizontal=0;startSize=0;swimlaneHead=0;swimlaneBody=0;fillColor=none;collapsible=0;dropTarget=0;points=[[0,0.5],[1,0.5]];portConstraint=eastwest;top=0;left=0;right=0;bottom=1;" parent="NnwOBRZ_t9ozKUxlOf1y-21" vertex="1">
          <mxGeometry y="30" width="180" height="30" as="geometry" />
        </mxCell>
        <mxCell id="NnwOBRZ_t9ozKUxlOf1y-23" value="PK" style="shape=partialRectangle;connectable=0;fillColor=none;top=0;left=0;bottom=0;right=0;fontStyle=1;overflow=hidden;whiteSpace=wrap;html=1;" parent="NnwOBRZ_t9ozKUxlOf1y-22" vertex="1">
          <mxGeometry width="30" height="30" as="geometry">
            <mxRectangle width="30" height="30" as="alternateBounds" />
          </mxGeometry>
        </mxCell>
        <mxCell id="NnwOBRZ_t9ozKUxlOf1y-24" value="id" style="shape=partialRectangle;connectable=0;fillColor=none;top=0;left=0;bottom=0;right=0;align=left;spacingLeft=6;fontStyle=5;overflow=hidden;whiteSpace=wrap;html=1;" parent="NnwOBRZ_t9ozKUxlOf1y-22" vertex="1">
          <mxGeometry x="30" width="150" height="30" as="geometry">
            <mxRectangle width="150" height="30" as="alternateBounds" />
          </mxGeometry>
        </mxCell>
        <mxCell id="NnwOBRZ_t9ozKUxlOf1y-25" value="" style="shape=tableRow;horizontal=0;startSize=0;swimlaneHead=0;swimlaneBody=0;fillColor=none;collapsible=0;dropTarget=0;points=[[0,0.5],[1,0.5]];portConstraint=eastwest;top=0;left=0;right=0;bottom=0;" parent="NnwOBRZ_t9ozKUxlOf1y-21" vertex="1">
          <mxGeometry y="60" width="180" height="30" as="geometry" />
        </mxCell>
        <mxCell id="NnwOBRZ_t9ozKUxlOf1y-26" value="" style="shape=partialRectangle;connectable=0;fillColor=none;top=0;left=0;bottom=0;right=0;editable=1;overflow=hidden;whiteSpace=wrap;html=1;" parent="NnwOBRZ_t9ozKUxlOf1y-25" vertex="1">
          <mxGeometry width="30" height="30" as="geometry">
            <mxRectangle width="30" height="30" as="alternateBounds" />
          </mxGeometry>
        </mxCell>
        <mxCell id="NnwOBRZ_t9ozKUxlOf1y-27" value="name" style="shape=partialRectangle;connectable=0;fillColor=none;top=0;left=0;bottom=0;right=0;align=left;spacingLeft=6;overflow=hidden;whiteSpace=wrap;html=1;" parent="NnwOBRZ_t9ozKUxlOf1y-25" vertex="1">
          <mxGeometry x="30" width="150" height="30" as="geometry">
            <mxRectangle width="150" height="30" as="alternateBounds" />
          </mxGeometry>
        </mxCell>
        <mxCell id="NnwOBRZ_t9ozKUxlOf1y-28" value="" style="shape=tableRow;horizontal=0;startSize=0;swimlaneHead=0;swimlaneBody=0;fillColor=none;collapsible=0;dropTarget=0;points=[[0,0.5],[1,0.5]];portConstraint=eastwest;top=0;left=0;right=0;bottom=0;" parent="NnwOBRZ_t9ozKUxlOf1y-21" vertex="1">
          <mxGeometry y="90" width="180" height="30" as="geometry" />
        </mxCell>
        <mxCell id="NnwOBRZ_t9ozKUxlOf1y-29" value="" style="shape=partialRectangle;connectable=0;fillColor=none;top=0;left=0;bottom=0;right=0;editable=1;overflow=hidden;whiteSpace=wrap;html=1;" parent="NnwOBRZ_t9ozKUxlOf1y-28" vertex="1">
          <mxGeometry width="30" height="30" as="geometry">
            <mxRectangle width="30" height="30" as="alternateBounds" />
          </mxGeometry>
        </mxCell>
        <mxCell id="NnwOBRZ_t9ozKUxlOf1y-30" value="email" style="shape=partialRectangle;connectable=0;fillColor=none;top=0;left=0;bottom=0;right=0;align=left;spacingLeft=6;overflow=hidden;whiteSpace=wrap;html=1;" parent="NnwOBRZ_t9ozKUxlOf1y-28" vertex="1">
          <mxGeometry x="30" width="150" height="30" as="geometry">
            <mxRectangle width="150" height="30" as="alternateBounds" />
          </mxGeometry>
        </mxCell>
        <mxCell id="NnwOBRZ_t9ozKUxlOf1y-31" value="" style="shape=tableRow;horizontal=0;startSize=0;swimlaneHead=0;swimlaneBody=0;fillColor=none;collapsible=0;dropTarget=0;points=[[0,0.5],[1,0.5]];portConstraint=eastwest;top=0;left=0;right=0;bottom=0;" parent="NnwOBRZ_t9ozKUxlOf1y-21" vertex="1">
          <mxGeometry y="120" width="180" height="30" as="geometry" />
        </mxCell>
        <mxCell id="NnwOBRZ_t9ozKUxlOf1y-32" value="" style="shape=partialRectangle;connectable=0;fillColor=none;top=0;left=0;bottom=0;right=0;editable=1;overflow=hidden;whiteSpace=wrap;html=1;" parent="NnwOBRZ_t9ozKUxlOf1y-31" vertex="1">
          <mxGeometry width="30" height="30" as="geometry">
            <mxRectangle width="30" height="30" as="alternateBounds" />
          </mxGeometry>
        </mxCell>
        <mxCell id="NnwOBRZ_t9ozKUxlOf1y-33" value="age" style="shape=partialRectangle;connectable=0;fillColor=none;top=0;left=0;bottom=0;right=0;align=left;spacingLeft=6;overflow=hidden;whiteSpace=wrap;html=1;" parent="NnwOBRZ_t9ozKUxlOf1y-31" vertex="1">
          <mxGeometry x="30" width="150" height="30" as="geometry">
            <mxRectangle width="150" height="30" as="alternateBounds" />
          </mxGeometry>
        </mxCell>
        <mxCell id="NnwOBRZ_t9ozKUxlOf1y-37" value="" style="shape=tableRow;horizontal=0;startSize=0;swimlaneHead=0;swimlaneBody=0;fillColor=none;collapsible=0;dropTarget=0;points=[[0,0.5],[1,0.5]];portConstraint=eastwest;top=0;left=0;right=0;bottom=0;" parent="NnwOBRZ_t9ozKUxlOf1y-21" vertex="1">
          <mxGeometry y="150" width="180" height="30" as="geometry" />
        </mxCell>
        <mxCell id="NnwOBRZ_t9ozKUxlOf1y-38" value="" style="shape=partialRectangle;connectable=0;fillColor=none;top=0;left=0;bottom=0;right=0;editable=1;overflow=hidden;whiteSpace=wrap;html=1;" parent="NnwOBRZ_t9ozKUxlOf1y-37" vertex="1">
          <mxGeometry width="30" height="30" as="geometry">
            <mxRectangle width="30" height="30" as="alternateBounds" />
          </mxGeometry>
        </mxCell>
        <mxCell id="NnwOBRZ_t9ozKUxlOf1y-39" value="password" style="shape=partialRectangle;connectable=0;fillColor=none;top=0;left=0;bottom=0;right=0;align=left;spacingLeft=6;overflow=hidden;whiteSpace=wrap;html=1;" parent="NnwOBRZ_t9ozKUxlOf1y-37" vertex="1">
          <mxGeometry x="30" width="150" height="30" as="geometry">
            <mxRectangle width="150" height="30" as="alternateBounds" />
          </mxGeometry>
        </mxCell>
        <mxCell id="NnwOBRZ_t9ozKUxlOf1y-41" value="view" style="ellipse;whiteSpace=wrap;html=1;align=center;" parent="1" vertex="1">
          <mxGeometry x="530" y="520" width="100" height="40" as="geometry" />
        </mxCell>
        <mxCell id="NnwOBRZ_t9ozKUxlOf1y-42" value="users_id (FK)&amp;nbsp;" style="ellipse;whiteSpace=wrap;html=1;align=center;" parent="1" vertex="1">
          <mxGeometry x="400" y="520" width="100" height="40" as="geometry" />
        </mxCell>
        <mxCell id="NnwOBRZ_t9ozKUxlOf1y-43" value="categories_id (FK)" style="ellipse;whiteSpace=wrap;html=1;align=center;" parent="1" vertex="1">
          <mxGeometry x="330" y="470" width="100" height="40" as="geometry" />
        </mxCell>
        <mxCell id="NnwOBRZ_t9ozKUxlOf1y-44" value="title" style="ellipse;whiteSpace=wrap;html=1;align=center;" parent="1" vertex="1">
          <mxGeometry x="330" y="400" width="100" height="40" as="geometry" />
        </mxCell>
        <mxCell id="NnwOBRZ_t9ozKUxlOf1y-45" value="contents" style="ellipse;whiteSpace=wrap;html=1;align=center;" parent="1" vertex="1">
          <mxGeometry x="464" y="360" width="100" height="40" as="geometry" />
        </mxCell>
        <mxCell id="NnwOBRZ_t9ozKUxlOf1y-46" value="category" style="ellipse;whiteSpace=wrap;html=1;align=center;" parent="1" vertex="1">
          <mxGeometry x="600" y="400" width="100" height="40" as="geometry" />
        </mxCell>
        <mxCell id="NnwOBRZ_t9ozKUxlOf1y-47" value="createat" style="ellipse;whiteSpace=wrap;html=1;align=center;" parent="1" vertex="1">
          <mxGeometry x="610" y="470" width="100" height="40" as="geometry" />
        </mxCell>
        <mxCell id="NnwOBRZ_t9ozKUxlOf1y-49" value="email" style="ellipse;whiteSpace=wrap;html=1;align=center;" parent="1" vertex="1">
          <mxGeometry x="340" y="130" width="100" height="40" as="geometry" />
        </mxCell>
        <mxCell id="NnwOBRZ_t9ozKUxlOf1y-50" value="id" style="ellipse;whiteSpace=wrap;html=1;align=center;fontStyle=4;" parent="1" vertex="1">
          <mxGeometry x="340" y="330" width="100" height="40" as="geometry" />
        </mxCell>
        <mxCell id="NnwOBRZ_t9ozKUxlOf1y-51" value="" style="endArrow=none;html=1;rounded=0;exitX=0.667;exitY=1.05;exitDx=0;exitDy=0;exitPerimeter=0;entryX=0.25;entryY=0;entryDx=0;entryDy=0;" parent="1" source="NnwOBRZ_t9ozKUxlOf1y-50" target="NnwOBRZ_t9ozKUxlOf1y-2" edge="1">
          <mxGeometry relative="1" as="geometry">
            <mxPoint x="350" y="429.66" as="sourcePoint" />
            <mxPoint x="510" y="429.66" as="targetPoint" />
          </mxGeometry>
        </mxCell>
        <mxCell id="NnwOBRZ_t9ozKUxlOf1y-52" value="" style="endArrow=none;html=1;rounded=0;exitX=0.668;exitY=1.024;exitDx=0;exitDy=0;exitPerimeter=0;entryX=0.611;entryY=-0.001;entryDx=0;entryDy=0;entryPerimeter=0;" parent="1" source="NnwOBRZ_t9ozKUxlOf1y-45" target="NnwOBRZ_t9ozKUxlOf1y-2" edge="1">
          <mxGeometry relative="1" as="geometry">
            <mxPoint x="481.5" y="382" as="sourcePoint" />
            <mxPoint x="558.5" y="440" as="targetPoint" />
          </mxGeometry>
        </mxCell>
        <mxCell id="NnwOBRZ_t9ozKUxlOf1y-53" value="" style="endArrow=none;html=1;rounded=0;exitX=-0.009;exitY=0.645;exitDx=0;exitDy=0;exitPerimeter=0;entryX=1;entryY=0.25;entryDx=0;entryDy=0;" parent="1" source="NnwOBRZ_t9ozKUxlOf1y-46" target="NnwOBRZ_t9ozKUxlOf1y-2" edge="1">
          <mxGeometry relative="1" as="geometry">
            <mxPoint x="541" y="411" as="sourcePoint" />
            <mxPoint x="537" y="440" as="targetPoint" />
          </mxGeometry>
        </mxCell>
        <mxCell id="NnwOBRZ_t9ozKUxlOf1y-54" value="" style="endArrow=none;html=1;rounded=0;entryX=1.002;entryY=0.643;entryDx=0;entryDy=0;entryPerimeter=0;exitX=0.015;exitY=0.378;exitDx=0;exitDy=0;exitPerimeter=0;" parent="1" source="NnwOBRZ_t9ozKUxlOf1y-47" target="NnwOBRZ_t9ozKUxlOf1y-2" edge="1">
          <mxGeometry relative="1" as="geometry">
            <mxPoint x="609" y="440" as="sourcePoint" />
            <mxPoint x="584" y="455" as="targetPoint" />
          </mxGeometry>
        </mxCell>
        <mxCell id="NnwOBRZ_t9ozKUxlOf1y-55" value="" style="endArrow=none;html=1;rounded=0;entryX=0.853;entryY=1.022;entryDx=0;entryDy=0;entryPerimeter=0;exitX=0.401;exitY=0.007;exitDx=0;exitDy=0;exitPerimeter=0;" parent="1" source="NnwOBRZ_t9ozKUxlOf1y-41" target="NnwOBRZ_t9ozKUxlOf1y-2" edge="1">
          <mxGeometry relative="1" as="geometry">
            <mxPoint x="590" y="510" as="sourcePoint" />
            <mxPoint x="552" y="494" as="targetPoint" />
          </mxGeometry>
        </mxCell>
        <mxCell id="NnwOBRZ_t9ozKUxlOf1y-56" value="" style="endArrow=none;html=1;rounded=0;exitX=0.627;exitY=0.025;exitDx=0;exitDy=0;exitPerimeter=0;" parent="1" source="NnwOBRZ_t9ozKUxlOf1y-42" target="NnwOBRZ_t9ozKUxlOf1y-2" edge="1">
          <mxGeometry relative="1" as="geometry">
            <mxPoint x="580" y="530" as="sourcePoint" />
            <mxPoint x="566" y="501" as="targetPoint" />
          </mxGeometry>
        </mxCell>
        <mxCell id="NnwOBRZ_t9ozKUxlOf1y-57" value="" style="endArrow=none;html=1;rounded=0;entryX=0.012;entryY=0.616;entryDx=0;entryDy=0;entryPerimeter=0;exitX=0.943;exitY=0.283;exitDx=0;exitDy=0;exitPerimeter=0;" parent="1" source="NnwOBRZ_t9ozKUxlOf1y-43" target="NnwOBRZ_t9ozKUxlOf1y-2" edge="1">
          <mxGeometry relative="1" as="geometry">
            <mxPoint x="425" y="484.43999999999994" as="sourcePoint" />
            <mxPoint x="454" y="469.9999999999999" as="targetPoint" />
          </mxGeometry>
        </mxCell>
        <mxCell id="NnwOBRZ_t9ozKUxlOf1y-58" value="" style="endArrow=none;html=1;rounded=0;entryX=0.007;entryY=0.417;entryDx=0;entryDy=0;exitX=0.925;exitY=0.731;exitDx=0;exitDy=0;exitPerimeter=0;entryPerimeter=0;" parent="1" source="NnwOBRZ_t9ozKUxlOf1y-44" target="NnwOBRZ_t9ozKUxlOf1y-2" edge="1">
          <mxGeometry relative="1" as="geometry">
            <mxPoint x="438" y="492" as="sourcePoint" />
            <mxPoint x="467" y="477" as="targetPoint" />
          </mxGeometry>
        </mxCell>
        <mxCell id="NnwOBRZ_t9ozKUxlOf1y-59" value="posts" style="shape=table;startSize=30;container=1;collapsible=1;childLayout=tableLayout;fixedRows=1;rowLines=0;fontStyle=1;align=center;resizeLast=1;html=1;" parent="1" vertex="1">
          <mxGeometry x="-720" y="260" width="180" height="270" as="geometry" />
        </mxCell>
        <mxCell id="NnwOBRZ_t9ozKUxlOf1y-129" value="" style="shape=tableRow;horizontal=0;startSize=0;swimlaneHead=0;swimlaneBody=0;fillColor=none;collapsible=0;dropTarget=0;points=[[0,0.5],[1,0.5]];portConstraint=eastwest;top=0;left=0;right=0;bottom=1;" parent="NnwOBRZ_t9ozKUxlOf1y-59" vertex="1">
          <mxGeometry y="30" width="180" height="30" as="geometry" />
        </mxCell>
        <mxCell id="NnwOBRZ_t9ozKUxlOf1y-130" value="PK" style="shape=partialRectangle;connectable=0;fillColor=none;top=0;left=0;bottom=0;right=0;fontStyle=1;overflow=hidden;whiteSpace=wrap;html=1;" parent="NnwOBRZ_t9ozKUxlOf1y-129" vertex="1">
          <mxGeometry width="30" height="30" as="geometry">
            <mxRectangle width="30" height="30" as="alternateBounds" />
          </mxGeometry>
        </mxCell>
        <mxCell id="NnwOBRZ_t9ozKUxlOf1y-131" value="id" style="shape=partialRectangle;connectable=0;fillColor=none;top=0;left=0;bottom=0;right=0;align=left;spacingLeft=6;fontStyle=5;overflow=hidden;whiteSpace=wrap;html=1;" parent="NnwOBRZ_t9ozKUxlOf1y-129" vertex="1">
          <mxGeometry x="30" width="150" height="30" as="geometry">
            <mxRectangle width="150" height="30" as="alternateBounds" />
          </mxGeometry>
        </mxCell>
        <mxCell id="NnwOBRZ_t9ozKUxlOf1y-132" value="" style="shape=tableRow;horizontal=0;startSize=0;swimlaneHead=0;swimlaneBody=0;fillColor=none;collapsible=0;dropTarget=0;points=[[0,0.5],[1,0.5]];portConstraint=eastwest;top=0;left=0;right=0;bottom=1;" parent="NnwOBRZ_t9ozKUxlOf1y-59" vertex="1">
          <mxGeometry y="60" width="180" height="30" as="geometry" />
        </mxCell>
        <mxCell id="NnwOBRZ_t9ozKUxlOf1y-133" value="FK" style="shape=partialRectangle;connectable=0;fillColor=none;top=0;left=0;bottom=0;right=0;fontStyle=1;overflow=hidden;whiteSpace=wrap;html=1;" parent="NnwOBRZ_t9ozKUxlOf1y-132" vertex="1">
          <mxGeometry width="30" height="30" as="geometry">
            <mxRectangle width="30" height="30" as="alternateBounds" />
          </mxGeometry>
        </mxCell>
        <mxCell id="NnwOBRZ_t9ozKUxlOf1y-134" value="&lt;span style=&quot;font-weight: 400; text-align: center;&quot;&gt;users_id&lt;/span&gt;" style="shape=partialRectangle;connectable=0;fillColor=none;top=0;left=0;bottom=0;right=0;align=left;spacingLeft=6;fontStyle=5;overflow=hidden;whiteSpace=wrap;html=1;" parent="NnwOBRZ_t9ozKUxlOf1y-132" vertex="1">
          <mxGeometry x="30" width="150" height="30" as="geometry">
            <mxRectangle width="150" height="30" as="alternateBounds" />
          </mxGeometry>
        </mxCell>
        <mxCell id="NnwOBRZ_t9ozKUxlOf1y-60" value="" style="shape=tableRow;horizontal=0;startSize=0;swimlaneHead=0;swimlaneBody=0;fillColor=none;collapsible=0;dropTarget=0;points=[[0,0.5],[1,0.5]];portConstraint=eastwest;top=0;left=0;right=0;bottom=1;" parent="NnwOBRZ_t9ozKUxlOf1y-59" vertex="1">
          <mxGeometry y="90" width="180" height="30" as="geometry" />
        </mxCell>
        <mxCell id="NnwOBRZ_t9ozKUxlOf1y-61" value="FK" style="shape=partialRectangle;connectable=0;fillColor=none;top=0;left=0;bottom=0;right=0;fontStyle=1;overflow=hidden;whiteSpace=wrap;html=1;" parent="NnwOBRZ_t9ozKUxlOf1y-60" vertex="1">
          <mxGeometry width="30" height="30" as="geometry">
            <mxRectangle width="30" height="30" as="alternateBounds" />
          </mxGeometry>
        </mxCell>
        <mxCell id="NnwOBRZ_t9ozKUxlOf1y-62" value="&lt;span style=&quot;font-weight: 400; text-align: center;&quot;&gt;categories_id&lt;/span&gt;" style="shape=partialRectangle;connectable=0;fillColor=none;top=0;left=0;bottom=0;right=0;align=left;spacingLeft=6;fontStyle=5;overflow=hidden;whiteSpace=wrap;html=1;" parent="NnwOBRZ_t9ozKUxlOf1y-60" vertex="1">
          <mxGeometry x="30" width="150" height="30" as="geometry">
            <mxRectangle width="150" height="30" as="alternateBounds" />
          </mxGeometry>
        </mxCell>
        <mxCell id="NnwOBRZ_t9ozKUxlOf1y-63" value="" style="shape=tableRow;horizontal=0;startSize=0;swimlaneHead=0;swimlaneBody=0;fillColor=none;collapsible=0;dropTarget=0;points=[[0,0.5],[1,0.5]];portConstraint=eastwest;top=0;left=0;right=0;bottom=0;" parent="NnwOBRZ_t9ozKUxlOf1y-59" vertex="1">
          <mxGeometry y="120" width="180" height="30" as="geometry" />
        </mxCell>
        <mxCell id="NnwOBRZ_t9ozKUxlOf1y-64" value="" style="shape=partialRectangle;connectable=0;fillColor=none;top=0;left=0;bottom=0;right=0;editable=1;overflow=hidden;whiteSpace=wrap;html=1;" parent="NnwOBRZ_t9ozKUxlOf1y-63" vertex="1">
          <mxGeometry width="30" height="30" as="geometry">
            <mxRectangle width="30" height="30" as="alternateBounds" />
          </mxGeometry>
        </mxCell>
        <mxCell id="NnwOBRZ_t9ozKUxlOf1y-65" value="title" style="shape=partialRectangle;connectable=0;fillColor=none;top=0;left=0;bottom=0;right=0;align=left;spacingLeft=6;overflow=hidden;whiteSpace=wrap;html=1;" parent="NnwOBRZ_t9ozKUxlOf1y-63" vertex="1">
          <mxGeometry x="30" width="150" height="30" as="geometry">
            <mxRectangle width="150" height="30" as="alternateBounds" />
          </mxGeometry>
        </mxCell>
        <mxCell id="NnwOBRZ_t9ozKUxlOf1y-66" value="" style="shape=tableRow;horizontal=0;startSize=0;swimlaneHead=0;swimlaneBody=0;fillColor=none;collapsible=0;dropTarget=0;points=[[0,0.5],[1,0.5]];portConstraint=eastwest;top=0;left=0;right=0;bottom=0;" parent="NnwOBRZ_t9ozKUxlOf1y-59" vertex="1">
          <mxGeometry y="150" width="180" height="30" as="geometry" />
        </mxCell>
        <mxCell id="NnwOBRZ_t9ozKUxlOf1y-67" value="" style="shape=partialRectangle;connectable=0;fillColor=none;top=0;left=0;bottom=0;right=0;editable=1;overflow=hidden;whiteSpace=wrap;html=1;" parent="NnwOBRZ_t9ozKUxlOf1y-66" vertex="1">
          <mxGeometry width="30" height="30" as="geometry">
            <mxRectangle width="30" height="30" as="alternateBounds" />
          </mxGeometry>
        </mxCell>
        <mxCell id="NnwOBRZ_t9ozKUxlOf1y-68" value="contents" style="shape=partialRectangle;connectable=0;fillColor=none;top=0;left=0;bottom=0;right=0;align=left;spacingLeft=6;overflow=hidden;whiteSpace=wrap;html=1;" parent="NnwOBRZ_t9ozKUxlOf1y-66" vertex="1">
          <mxGeometry x="30" width="150" height="30" as="geometry">
            <mxRectangle width="150" height="30" as="alternateBounds" />
          </mxGeometry>
        </mxCell>
        <mxCell id="NnwOBRZ_t9ozKUxlOf1y-72" value="" style="shape=tableRow;horizontal=0;startSize=0;swimlaneHead=0;swimlaneBody=0;fillColor=none;collapsible=0;dropTarget=0;points=[[0,0.5],[1,0.5]];portConstraint=eastwest;top=0;left=0;right=0;bottom=0;" parent="NnwOBRZ_t9ozKUxlOf1y-59" vertex="1">
          <mxGeometry y="180" width="180" height="30" as="geometry" />
        </mxCell>
        <mxCell id="NnwOBRZ_t9ozKUxlOf1y-73" value="" style="shape=partialRectangle;connectable=0;fillColor=none;top=0;left=0;bottom=0;right=0;editable=1;overflow=hidden;whiteSpace=wrap;html=1;" parent="NnwOBRZ_t9ozKUxlOf1y-72" vertex="1">
          <mxGeometry width="30" height="30" as="geometry">
            <mxRectangle width="30" height="30" as="alternateBounds" />
          </mxGeometry>
        </mxCell>
        <mxCell id="NnwOBRZ_t9ozKUxlOf1y-74" value="category" style="shape=partialRectangle;connectable=0;fillColor=none;top=0;left=0;bottom=0;right=0;align=left;spacingLeft=6;overflow=hidden;whiteSpace=wrap;html=1;" parent="NnwOBRZ_t9ozKUxlOf1y-72" vertex="1">
          <mxGeometry x="30" width="150" height="30" as="geometry">
            <mxRectangle width="150" height="30" as="alternateBounds" />
          </mxGeometry>
        </mxCell>
        <mxCell id="NnwOBRZ_t9ozKUxlOf1y-75" value="" style="shape=tableRow;horizontal=0;startSize=0;swimlaneHead=0;swimlaneBody=0;fillColor=none;collapsible=0;dropTarget=0;points=[[0,0.5],[1,0.5]];portConstraint=eastwest;top=0;left=0;right=0;bottom=0;" parent="NnwOBRZ_t9ozKUxlOf1y-59" vertex="1">
          <mxGeometry y="210" width="180" height="30" as="geometry" />
        </mxCell>
        <mxCell id="NnwOBRZ_t9ozKUxlOf1y-76" value="" style="shape=partialRectangle;connectable=0;fillColor=none;top=0;left=0;bottom=0;right=0;editable=1;overflow=hidden;whiteSpace=wrap;html=1;" parent="NnwOBRZ_t9ozKUxlOf1y-75" vertex="1">
          <mxGeometry width="30" height="30" as="geometry">
            <mxRectangle width="30" height="30" as="alternateBounds" />
          </mxGeometry>
        </mxCell>
        <mxCell id="NnwOBRZ_t9ozKUxlOf1y-77" value="&lt;span style=&quot;text-align: center;&quot;&gt;createat&lt;/span&gt;" style="shape=partialRectangle;connectable=0;fillColor=none;top=0;left=0;bottom=0;right=0;align=left;spacingLeft=6;overflow=hidden;whiteSpace=wrap;html=1;" parent="NnwOBRZ_t9ozKUxlOf1y-75" vertex="1">
          <mxGeometry x="30" width="150" height="30" as="geometry">
            <mxRectangle width="150" height="30" as="alternateBounds" />
          </mxGeometry>
        </mxCell>
        <mxCell id="NnwOBRZ_t9ozKUxlOf1y-78" value="" style="shape=tableRow;horizontal=0;startSize=0;swimlaneHead=0;swimlaneBody=0;fillColor=none;collapsible=0;dropTarget=0;points=[[0,0.5],[1,0.5]];portConstraint=eastwest;top=0;left=0;right=0;bottom=0;" parent="NnwOBRZ_t9ozKUxlOf1y-59" vertex="1">
          <mxGeometry y="240" width="180" height="30" as="geometry" />
        </mxCell>
        <mxCell id="NnwOBRZ_t9ozKUxlOf1y-79" value="" style="shape=partialRectangle;connectable=0;fillColor=none;top=0;left=0;bottom=0;right=0;editable=1;overflow=hidden;whiteSpace=wrap;html=1;" parent="NnwOBRZ_t9ozKUxlOf1y-78" vertex="1">
          <mxGeometry width="30" height="30" as="geometry">
            <mxRectangle width="30" height="30" as="alternateBounds" />
          </mxGeometry>
        </mxCell>
        <mxCell id="NnwOBRZ_t9ozKUxlOf1y-80" value="&lt;span style=&quot;text-align: center;&quot;&gt;view&lt;/span&gt;" style="shape=partialRectangle;connectable=0;fillColor=none;top=0;left=0;bottom=0;right=0;align=left;spacingLeft=6;overflow=hidden;whiteSpace=wrap;html=1;" parent="NnwOBRZ_t9ozKUxlOf1y-78" vertex="1">
          <mxGeometry x="30" width="150" height="30" as="geometry">
            <mxRectangle width="150" height="30" as="alternateBounds" />
          </mxGeometry>
        </mxCell>
        <mxCell id="NnwOBRZ_t9ozKUxlOf1y-84" value="password" style="ellipse;whiteSpace=wrap;html=1;align=center;" parent="1" vertex="1">
          <mxGeometry x="464" y="60" width="100" height="40" as="geometry" />
        </mxCell>
        <mxCell id="NnwOBRZ_t9ozKUxlOf1y-85" value="id" style="ellipse;whiteSpace=wrap;html=1;align=center;fontStyle=4;" parent="1" vertex="1">
          <mxGeometry x="354" y="750" width="100" height="40" as="geometry" />
        </mxCell>
        <mxCell id="NnwOBRZ_t9ozKUxlOf1y-86" value="name" style="ellipse;whiteSpace=wrap;html=1;align=center;" parent="1" vertex="1">
          <mxGeometry x="480" y="710" width="100" height="40" as="geometry" />
        </mxCell>
        <mxCell id="NnwOBRZ_t9ozKUxlOf1y-87" value="" style="endArrow=none;html=1;rounded=0;exitX=0.629;exitY=1.025;exitDx=0;exitDy=0;exitPerimeter=0;entryX=0;entryY=0.5;entryDx=0;entryDy=0;" parent="1" source="NnwOBRZ_t9ozKUxlOf1y-85" target="NnwOBRZ_t9ozKUxlOf1y-3" edge="1">
          <mxGeometry relative="1" as="geometry">
            <mxPoint x="310" y="819.64" as="sourcePoint" />
            <mxPoint x="470" y="819.64" as="targetPoint" />
          </mxGeometry>
        </mxCell>
        <mxCell id="NnwOBRZ_t9ozKUxlOf1y-88" value="" style="endArrow=none;html=1;rounded=0;exitX=0.5;exitY=1;exitDx=0;exitDy=0;" parent="1" source="NnwOBRZ_t9ozKUxlOf1y-86" target="NnwOBRZ_t9ozKUxlOf1y-3" edge="1">
          <mxGeometry relative="1" as="geometry">
            <mxPoint x="474" y="759.5" as="sourcePoint" />
            <mxPoint x="530" y="780.5" as="targetPoint" />
          </mxGeometry>
        </mxCell>
        <mxCell id="NnwOBRZ_t9ozKUxlOf1y-89" value="&lt;span style=&quot;font-weight: 400; text-wrap-mode: wrap;&quot;&gt;categories&lt;/span&gt;" style="shape=table;startSize=30;container=1;collapsible=1;childLayout=tableLayout;fixedRows=1;rowLines=0;fontStyle=1;align=center;resizeLast=1;html=1;" parent="1" vertex="1">
          <mxGeometry x="-720" y="570" width="180" height="90" as="geometry" />
        </mxCell>
        <mxCell id="NnwOBRZ_t9ozKUxlOf1y-90" value="" style="shape=tableRow;horizontal=0;startSize=0;swimlaneHead=0;swimlaneBody=0;fillColor=none;collapsible=0;dropTarget=0;points=[[0,0.5],[1,0.5]];portConstraint=eastwest;top=0;left=0;right=0;bottom=1;" parent="NnwOBRZ_t9ozKUxlOf1y-89" vertex="1">
          <mxGeometry y="30" width="180" height="30" as="geometry" />
        </mxCell>
        <mxCell id="NnwOBRZ_t9ozKUxlOf1y-91" value="PK" style="shape=partialRectangle;connectable=0;fillColor=none;top=0;left=0;bottom=0;right=0;fontStyle=1;overflow=hidden;whiteSpace=wrap;html=1;" parent="NnwOBRZ_t9ozKUxlOf1y-90" vertex="1">
          <mxGeometry width="30" height="30" as="geometry">
            <mxRectangle width="30" height="30" as="alternateBounds" />
          </mxGeometry>
        </mxCell>
        <mxCell id="NnwOBRZ_t9ozKUxlOf1y-92" value="&lt;span style=&quot;font-weight: 400; text-align: center;&quot;&gt;id&lt;/span&gt;" style="shape=partialRectangle;connectable=0;fillColor=none;top=0;left=0;bottom=0;right=0;align=left;spacingLeft=6;fontStyle=5;overflow=hidden;whiteSpace=wrap;html=1;" parent="NnwOBRZ_t9ozKUxlOf1y-90" vertex="1">
          <mxGeometry x="30" width="150" height="30" as="geometry">
            <mxRectangle width="150" height="30" as="alternateBounds" />
          </mxGeometry>
        </mxCell>
        <mxCell id="NnwOBRZ_t9ozKUxlOf1y-93" value="" style="shape=tableRow;horizontal=0;startSize=0;swimlaneHead=0;swimlaneBody=0;fillColor=none;collapsible=0;dropTarget=0;points=[[0,0.5],[1,0.5]];portConstraint=eastwest;top=0;left=0;right=0;bottom=0;" parent="NnwOBRZ_t9ozKUxlOf1y-89" vertex="1">
          <mxGeometry y="60" width="180" height="30" as="geometry" />
        </mxCell>
        <mxCell id="NnwOBRZ_t9ozKUxlOf1y-94" value="" style="shape=partialRectangle;connectable=0;fillColor=none;top=0;left=0;bottom=0;right=0;editable=1;overflow=hidden;whiteSpace=wrap;html=1;" parent="NnwOBRZ_t9ozKUxlOf1y-93" vertex="1">
          <mxGeometry width="30" height="30" as="geometry">
            <mxRectangle width="30" height="30" as="alternateBounds" />
          </mxGeometry>
        </mxCell>
        <mxCell id="NnwOBRZ_t9ozKUxlOf1y-95" value="&lt;span style=&quot;text-align: center;&quot;&gt;name&lt;/span&gt;" style="shape=partialRectangle;connectable=0;fillColor=none;top=0;left=0;bottom=0;right=0;align=left;spacingLeft=6;overflow=hidden;whiteSpace=wrap;html=1;" parent="NnwOBRZ_t9ozKUxlOf1y-93" vertex="1">
          <mxGeometry x="30" width="150" height="30" as="geometry">
            <mxRectangle width="150" height="30" as="alternateBounds" />
          </mxGeometry>
        </mxCell>
        <mxCell id="NnwOBRZ_t9ozKUxlOf1y-102" value="age" style="ellipse;whiteSpace=wrap;html=1;align=center;" parent="1" vertex="1">
          <mxGeometry x="590" y="100" width="100" height="40" as="geometry" />
        </mxCell>
        <mxCell id="NnwOBRZ_t9ozKUxlOf1y-103" value="name" style="ellipse;whiteSpace=wrap;html=1;align=center;" parent="1" vertex="1">
          <mxGeometry x="610" y="210" width="100" height="40" as="geometry" />
        </mxCell>
        <mxCell id="NnwOBRZ_t9ozKUxlOf1y-104" value="users_id (FK)" style="ellipse;whiteSpace=wrap;html=1;align=center;" parent="1" vertex="1">
          <mxGeometry x="490" y="975" width="100" height="40" as="geometry" />
        </mxCell>
        <mxCell id="NnwOBRZ_t9ozKUxlOf1y-105" value="posts_id (FK)" style="ellipse;whiteSpace=wrap;html=1;align=center;" parent="1" vertex="1">
          <mxGeometry x="490" y="1040" width="100" height="40" as="geometry" />
        </mxCell>
        <mxCell id="NnwOBRZ_t9ozKUxlOf1y-106" value="id" style="ellipse;whiteSpace=wrap;html=1;align=center;fontStyle=4;" parent="1" vertex="1">
          <mxGeometry x="354" y="935" width="100" height="40" as="geometry" />
        </mxCell>
        <mxCell id="NnwOBRZ_t9ozKUxlOf1y-107" value="" style="endArrow=none;html=1;rounded=0;exitX=0.5;exitY=1;exitDx=0;exitDy=0;entryX=0.5;entryY=0;entryDx=0;entryDy=0;" parent="1" source="NnwOBRZ_t9ozKUxlOf1y-106" target="NnwOBRZ_t9ozKUxlOf1y-4" edge="1">
          <mxGeometry relative="1" as="geometry">
            <mxPoint x="240" y="994.71" as="sourcePoint" />
            <mxPoint x="400" y="994.71" as="targetPoint" />
          </mxGeometry>
        </mxCell>
        <mxCell id="NnwOBRZ_t9ozKUxlOf1y-108" value="" style="endArrow=none;html=1;rounded=0;entryX=1.006;entryY=0.301;entryDx=0;entryDy=0;entryPerimeter=0;" parent="1" source="NnwOBRZ_t9ozKUxlOf1y-104" target="NnwOBRZ_t9ozKUxlOf1y-4" edge="1">
          <mxGeometry relative="1" as="geometry">
            <mxPoint x="480" y="1005" as="sourcePoint" />
            <mxPoint x="476" y="1025" as="targetPoint" />
          </mxGeometry>
        </mxCell>
        <mxCell id="NnwOBRZ_t9ozKUxlOf1y-109" value="" style="endArrow=none;html=1;rounded=0;entryX=1;entryY=0.667;entryDx=0;entryDy=0;entryPerimeter=0;exitX=0;exitY=0.5;exitDx=0;exitDy=0;" parent="1" source="NnwOBRZ_t9ozKUxlOf1y-105" target="NnwOBRZ_t9ozKUxlOf1y-4" edge="1">
          <mxGeometry relative="1" as="geometry">
            <mxPoint x="502.00000000000045" y="1041.7199999999998" as="sourcePoint" />
            <mxPoint x="471" y="1023" as="targetPoint" />
          </mxGeometry>
        </mxCell>
        <mxCell id="NnwOBRZ_t9ozKUxlOf1y-110" value="views" style="shape=table;startSize=30;container=1;collapsible=1;childLayout=tableLayout;fixedRows=1;rowLines=0;fontStyle=1;align=center;resizeLast=1;html=1;" parent="1" vertex="1">
          <mxGeometry x="-720" y="710" width="180" height="120" as="geometry" />
        </mxCell>
        <mxCell id="NnwOBRZ_t9ozKUxlOf1y-123" value="" style="shape=tableRow;horizontal=0;startSize=0;swimlaneHead=0;swimlaneBody=0;fillColor=none;collapsible=0;dropTarget=0;points=[[0,0.5],[1,0.5]];portConstraint=eastwest;top=0;left=0;right=0;bottom=1;" parent="NnwOBRZ_t9ozKUxlOf1y-110" vertex="1">
          <mxGeometry y="30" width="180" height="30" as="geometry" />
        </mxCell>
        <mxCell id="NnwOBRZ_t9ozKUxlOf1y-124" value="PK" style="shape=partialRectangle;connectable=0;fillColor=none;top=0;left=0;bottom=0;right=0;fontStyle=1;overflow=hidden;whiteSpace=wrap;html=1;" parent="NnwOBRZ_t9ozKUxlOf1y-123" vertex="1">
          <mxGeometry width="30" height="30" as="geometry">
            <mxRectangle width="30" height="30" as="alternateBounds" />
          </mxGeometry>
        </mxCell>
        <mxCell id="NnwOBRZ_t9ozKUxlOf1y-125" value="&lt;span style=&quot;font-weight: 400; text-align: center;&quot;&gt;id&lt;/span&gt;" style="shape=partialRectangle;connectable=0;fillColor=none;top=0;left=0;bottom=0;right=0;align=left;spacingLeft=6;fontStyle=5;overflow=hidden;whiteSpace=wrap;html=1;" parent="NnwOBRZ_t9ozKUxlOf1y-123" vertex="1">
          <mxGeometry x="30" width="150" height="30" as="geometry">
            <mxRectangle width="150" height="30" as="alternateBounds" />
          </mxGeometry>
        </mxCell>
        <mxCell id="NnwOBRZ_t9ozKUxlOf1y-126" value="" style="shape=tableRow;horizontal=0;startSize=0;swimlaneHead=0;swimlaneBody=0;fillColor=none;collapsible=0;dropTarget=0;points=[[0,0.5],[1,0.5]];portConstraint=eastwest;top=0;left=0;right=0;bottom=1;" parent="NnwOBRZ_t9ozKUxlOf1y-110" vertex="1">
          <mxGeometry y="60" width="180" height="30" as="geometry" />
        </mxCell>
        <mxCell id="NnwOBRZ_t9ozKUxlOf1y-127" value="FK" style="shape=partialRectangle;connectable=0;fillColor=none;top=0;left=0;bottom=0;right=0;fontStyle=1;overflow=hidden;whiteSpace=wrap;html=1;" parent="NnwOBRZ_t9ozKUxlOf1y-126" vertex="1">
          <mxGeometry width="30" height="30" as="geometry">
            <mxRectangle width="30" height="30" as="alternateBounds" />
          </mxGeometry>
        </mxCell>
        <mxCell id="NnwOBRZ_t9ozKUxlOf1y-128" value="&lt;span style=&quot;font-weight: 400; text-align: center;&quot;&gt;posts_id&lt;/span&gt;" style="shape=partialRectangle;connectable=0;fillColor=none;top=0;left=0;bottom=0;right=0;align=left;spacingLeft=6;fontStyle=5;overflow=hidden;whiteSpace=wrap;html=1;" parent="NnwOBRZ_t9ozKUxlOf1y-126" vertex="1">
          <mxGeometry x="30" width="150" height="30" as="geometry">
            <mxRectangle width="150" height="30" as="alternateBounds" />
          </mxGeometry>
        </mxCell>
        <mxCell id="NnwOBRZ_t9ozKUxlOf1y-111" value="" style="shape=tableRow;horizontal=0;startSize=0;swimlaneHead=0;swimlaneBody=0;fillColor=none;collapsible=0;dropTarget=0;points=[[0,0.5],[1,0.5]];portConstraint=eastwest;top=0;left=0;right=0;bottom=1;" parent="NnwOBRZ_t9ozKUxlOf1y-110" vertex="1">
          <mxGeometry y="90" width="180" height="30" as="geometry" />
        </mxCell>
        <mxCell id="NnwOBRZ_t9ozKUxlOf1y-112" value="FK" style="shape=partialRectangle;connectable=0;fillColor=none;top=0;left=0;bottom=0;right=0;fontStyle=1;overflow=hidden;whiteSpace=wrap;html=1;" parent="NnwOBRZ_t9ozKUxlOf1y-111" vertex="1">
          <mxGeometry width="30" height="30" as="geometry">
            <mxRectangle width="30" height="30" as="alternateBounds" />
          </mxGeometry>
        </mxCell>
        <mxCell id="NnwOBRZ_t9ozKUxlOf1y-113" value="&lt;span style=&quot;font-weight: 400; text-align: center;&quot;&gt;users_id&lt;/span&gt;" style="shape=partialRectangle;connectable=0;fillColor=none;top=0;left=0;bottom=0;right=0;align=left;spacingLeft=6;fontStyle=5;overflow=hidden;whiteSpace=wrap;html=1;" parent="NnwOBRZ_t9ozKUxlOf1y-111" vertex="1">
          <mxGeometry x="30" width="150" height="30" as="geometry">
            <mxRectangle width="150" height="30" as="alternateBounds" />
          </mxGeometry>
        </mxCell>
        <mxCell id="NnwOBRZ_t9ozKUxlOf1y-135" value="id" style="ellipse;whiteSpace=wrap;html=1;align=center;fontStyle=4;" parent="1" vertex="1">
          <mxGeometry x="910" y="190" width="100" height="40" as="geometry" />
        </mxCell>
        <mxCell id="NnwOBRZ_t9ozKUxlOf1y-136" value="tag" style="ellipse;whiteSpace=wrap;html=1;align=center;" parent="1" vertex="1">
          <mxGeometry x="1009" y="250" width="100" height="40" as="geometry" />
        </mxCell>
        <mxCell id="NnwOBRZ_t9ozKUxlOf1y-137" value="hashtags" style="shape=table;startSize=30;container=1;collapsible=1;childLayout=tableLayout;fixedRows=1;rowLines=0;fontStyle=1;align=center;resizeLast=1;html=1;" parent="1" vertex="1">
          <mxGeometry x="-720" y="870" width="180" height="90" as="geometry" />
        </mxCell>
        <mxCell id="NnwOBRZ_t9ozKUxlOf1y-138" value="" style="shape=tableRow;horizontal=0;startSize=0;swimlaneHead=0;swimlaneBody=0;fillColor=none;collapsible=0;dropTarget=0;points=[[0,0.5],[1,0.5]];portConstraint=eastwest;top=0;left=0;right=0;bottom=1;" parent="NnwOBRZ_t9ozKUxlOf1y-137" vertex="1">
          <mxGeometry y="30" width="180" height="30" as="geometry" />
        </mxCell>
        <mxCell id="NnwOBRZ_t9ozKUxlOf1y-139" value="PK" style="shape=partialRectangle;connectable=0;fillColor=none;top=0;left=0;bottom=0;right=0;fontStyle=1;overflow=hidden;whiteSpace=wrap;html=1;" parent="NnwOBRZ_t9ozKUxlOf1y-138" vertex="1">
          <mxGeometry width="30" height="30" as="geometry">
            <mxRectangle width="30" height="30" as="alternateBounds" />
          </mxGeometry>
        </mxCell>
        <mxCell id="NnwOBRZ_t9ozKUxlOf1y-140" value="id" style="shape=partialRectangle;connectable=0;fillColor=none;top=0;left=0;bottom=0;right=0;align=left;spacingLeft=6;fontStyle=5;overflow=hidden;whiteSpace=wrap;html=1;" parent="NnwOBRZ_t9ozKUxlOf1y-138" vertex="1">
          <mxGeometry x="30" width="150" height="30" as="geometry">
            <mxRectangle width="150" height="30" as="alternateBounds" />
          </mxGeometry>
        </mxCell>
        <mxCell id="NnwOBRZ_t9ozKUxlOf1y-141" value="" style="shape=tableRow;horizontal=0;startSize=0;swimlaneHead=0;swimlaneBody=0;fillColor=none;collapsible=0;dropTarget=0;points=[[0,0.5],[1,0.5]];portConstraint=eastwest;top=0;left=0;right=0;bottom=0;" parent="NnwOBRZ_t9ozKUxlOf1y-137" vertex="1">
          <mxGeometry y="60" width="180" height="30" as="geometry" />
        </mxCell>
        <mxCell id="NnwOBRZ_t9ozKUxlOf1y-142" value="" style="shape=partialRectangle;connectable=0;fillColor=none;top=0;left=0;bottom=0;right=0;editable=1;overflow=hidden;whiteSpace=wrap;html=1;" parent="NnwOBRZ_t9ozKUxlOf1y-141" vertex="1">
          <mxGeometry width="30" height="30" as="geometry">
            <mxRectangle width="30" height="30" as="alternateBounds" />
          </mxGeometry>
        </mxCell>
        <mxCell id="NnwOBRZ_t9ozKUxlOf1y-143" value="tag" style="shape=partialRectangle;connectable=0;fillColor=none;top=0;left=0;bottom=0;right=0;align=left;spacingLeft=6;overflow=hidden;whiteSpace=wrap;html=1;" parent="NnwOBRZ_t9ozKUxlOf1y-141" vertex="1">
          <mxGeometry x="30" width="150" height="30" as="geometry">
            <mxRectangle width="150" height="30" as="alternateBounds" />
          </mxGeometry>
        </mxCell>
        <mxCell id="NnwOBRZ_t9ozKUxlOf1y-150" value="" style="endArrow=none;html=1;rounded=0;exitX=1;exitY=0.5;exitDx=0;exitDy=0;" parent="1" source="NnwOBRZ_t9ozKUxlOf1y-135" edge="1">
          <mxGeometry relative="1" as="geometry">
            <mxPoint x="1039" y="210" as="sourcePoint" />
            <mxPoint x="1059" y="209.63" as="targetPoint" />
          </mxGeometry>
        </mxCell>
        <mxCell id="NnwOBRZ_t9ozKUxlOf1y-151" value="" style="endArrow=none;html=1;rounded=0;exitX=0.5;exitY=0;exitDx=0;exitDy=0;entryX=0.25;entryY=1;entryDx=0;entryDy=0;" parent="1" source="NnwOBRZ_t9ozKUxlOf1y-136" target="NnwOBRZ_t9ozKUxlOf1y-5" edge="1">
          <mxGeometry relative="1" as="geometry">
            <mxPoint x="1050" y="240.37" as="sourcePoint" />
            <mxPoint x="1099" y="230" as="targetPoint" />
          </mxGeometry>
        </mxCell>
        <mxCell id="NnwOBRZ_t9ozKUxlOf1y-153" value="users_id (FK)" style="ellipse;whiteSpace=wrap;html=1;align=center;" parent="1" vertex="1">
          <mxGeometry x="1160" y="400" width="100" height="40" as="geometry" />
        </mxCell>
        <mxCell id="NnwOBRZ_t9ozKUxlOf1y-154" value="posts_id (FK)" style="ellipse;whiteSpace=wrap;html=1;align=center;" parent="1" vertex="1">
          <mxGeometry x="1170" y="470" width="100" height="40" as="geometry" />
        </mxCell>
        <mxCell id="NnwOBRZ_t9ozKUxlOf1y-155" value="id" style="ellipse;whiteSpace=wrap;html=1;align=center;fontStyle=4;" parent="1" vertex="1">
          <mxGeometry x="1060" y="340" width="100" height="40" as="geometry" />
        </mxCell>
        <mxCell id="NnwOBRZ_t9ozKUxlOf1y-156" value="" style="endArrow=none;html=1;rounded=0;exitX=0.75;exitY=0;exitDx=0;exitDy=0;entryX=0.5;entryY=1;entryDx=0;entryDy=0;" parent="1" source="NnwOBRZ_t9ozKUxlOf1y-6" target="NnwOBRZ_t9ozKUxlOf1y-155" edge="1">
          <mxGeometry relative="1" as="geometry">
            <mxPoint x="1100" y="410" as="sourcePoint" />
            <mxPoint x="1130" y="390" as="targetPoint" />
          </mxGeometry>
        </mxCell>
        <mxCell id="NnwOBRZ_t9ozKUxlOf1y-157" value="" style="endArrow=none;html=1;rounded=0;exitX=1.006;exitY=0.361;exitDx=0;exitDy=0;entryX=0;entryY=0.5;entryDx=0;entryDy=0;exitPerimeter=0;" parent="1" source="NnwOBRZ_t9ozKUxlOf1y-6" target="NnwOBRZ_t9ozKUxlOf1y-153" edge="1">
          <mxGeometry relative="1" as="geometry">
            <mxPoint x="1110" y="420" as="sourcePoint" />
            <mxPoint x="1107" y="398" as="targetPoint" />
          </mxGeometry>
        </mxCell>
        <mxCell id="NnwOBRZ_t9ozKUxlOf1y-159" value="" style="endArrow=none;html=1;rounded=0;exitX=1;exitY=0.75;exitDx=0;exitDy=0;entryX=0;entryY=0;entryDx=0;entryDy=0;" parent="1" source="NnwOBRZ_t9ozKUxlOf1y-6" target="NnwOBRZ_t9ozKUxlOf1y-154" edge="1">
          <mxGeometry relative="1" as="geometry">
            <mxPoint x="1141" y="442" as="sourcePoint" />
            <mxPoint x="1170" y="430" as="targetPoint" />
          </mxGeometry>
        </mxCell>
        <mxCell id="NnwOBRZ_t9ozKUxlOf1y-160" value="&lt;span style=&quot;font-weight: 400; text-wrap-mode: wrap;&quot;&gt;likes&lt;/span&gt;" style="shape=table;startSize=30;container=1;collapsible=1;childLayout=tableLayout;fixedRows=1;rowLines=0;fontStyle=1;align=center;resizeLast=1;html=1;" parent="1" vertex="1">
          <mxGeometry x="-420" y="40" width="180" height="120" as="geometry" />
        </mxCell>
        <mxCell id="NnwOBRZ_t9ozKUxlOf1y-170" value="" style="shape=tableRow;horizontal=0;startSize=0;swimlaneHead=0;swimlaneBody=0;fillColor=none;collapsible=0;dropTarget=0;points=[[0,0.5],[1,0.5]];portConstraint=eastwest;top=0;left=0;right=0;bottom=1;" parent="NnwOBRZ_t9ozKUxlOf1y-160" vertex="1">
          <mxGeometry y="30" width="180" height="30" as="geometry" />
        </mxCell>
        <mxCell id="NnwOBRZ_t9ozKUxlOf1y-171" value="PK" style="shape=partialRectangle;connectable=0;fillColor=none;top=0;left=0;bottom=0;right=0;fontStyle=1;overflow=hidden;whiteSpace=wrap;html=1;" parent="NnwOBRZ_t9ozKUxlOf1y-170" vertex="1">
          <mxGeometry width="30" height="30" as="geometry">
            <mxRectangle width="30" height="30" as="alternateBounds" />
          </mxGeometry>
        </mxCell>
        <mxCell id="NnwOBRZ_t9ozKUxlOf1y-172" value="id" style="shape=partialRectangle;connectable=0;fillColor=none;top=0;left=0;bottom=0;right=0;align=left;spacingLeft=6;fontStyle=5;overflow=hidden;whiteSpace=wrap;html=1;" parent="NnwOBRZ_t9ozKUxlOf1y-170" vertex="1">
          <mxGeometry x="30" width="150" height="30" as="geometry">
            <mxRectangle width="150" height="30" as="alternateBounds" />
          </mxGeometry>
        </mxCell>
        <mxCell id="NnwOBRZ_t9ozKUxlOf1y-173" value="" style="shape=tableRow;horizontal=0;startSize=0;swimlaneHead=0;swimlaneBody=0;fillColor=none;collapsible=0;dropTarget=0;points=[[0,0.5],[1,0.5]];portConstraint=eastwest;top=0;left=0;right=0;bottom=1;" parent="NnwOBRZ_t9ozKUxlOf1y-160" vertex="1">
          <mxGeometry y="60" width="180" height="30" as="geometry" />
        </mxCell>
        <mxCell id="NnwOBRZ_t9ozKUxlOf1y-174" value="FK" style="shape=partialRectangle;connectable=0;fillColor=none;top=0;left=0;bottom=0;right=0;fontStyle=1;overflow=hidden;whiteSpace=wrap;html=1;" parent="NnwOBRZ_t9ozKUxlOf1y-173" vertex="1">
          <mxGeometry width="30" height="30" as="geometry">
            <mxRectangle width="30" height="30" as="alternateBounds" />
          </mxGeometry>
        </mxCell>
        <mxCell id="NnwOBRZ_t9ozKUxlOf1y-175" value="&lt;span style=&quot;font-weight: 400; text-align: center;&quot;&gt;users_id&lt;/span&gt;" style="shape=partialRectangle;connectable=0;fillColor=none;top=0;left=0;bottom=0;right=0;align=left;spacingLeft=6;fontStyle=5;overflow=hidden;whiteSpace=wrap;html=1;" parent="NnwOBRZ_t9ozKUxlOf1y-173" vertex="1">
          <mxGeometry x="30" width="150" height="30" as="geometry">
            <mxRectangle width="150" height="30" as="alternateBounds" />
          </mxGeometry>
        </mxCell>
        <mxCell id="NnwOBRZ_t9ozKUxlOf1y-161" value="" style="shape=tableRow;horizontal=0;startSize=0;swimlaneHead=0;swimlaneBody=0;fillColor=none;collapsible=0;dropTarget=0;points=[[0,0.5],[1,0.5]];portConstraint=eastwest;top=0;left=0;right=0;bottom=1;" parent="NnwOBRZ_t9ozKUxlOf1y-160" vertex="1">
          <mxGeometry y="90" width="180" height="30" as="geometry" />
        </mxCell>
        <mxCell id="NnwOBRZ_t9ozKUxlOf1y-162" value="FK" style="shape=partialRectangle;connectable=0;fillColor=none;top=0;left=0;bottom=0;right=0;fontStyle=1;overflow=hidden;whiteSpace=wrap;html=1;" parent="NnwOBRZ_t9ozKUxlOf1y-161" vertex="1">
          <mxGeometry width="30" height="30" as="geometry">
            <mxRectangle width="30" height="30" as="alternateBounds" />
          </mxGeometry>
        </mxCell>
        <mxCell id="NnwOBRZ_t9ozKUxlOf1y-163" value="&lt;span style=&quot;font-weight: 400; text-align: center;&quot;&gt;posts_id&lt;/span&gt;" style="shape=partialRectangle;connectable=0;fillColor=none;top=0;left=0;bottom=0;right=0;align=left;spacingLeft=6;fontStyle=5;overflow=hidden;whiteSpace=wrap;html=1;" parent="NnwOBRZ_t9ozKUxlOf1y-161" vertex="1">
          <mxGeometry x="30" width="150" height="30" as="geometry">
            <mxRectangle width="150" height="30" as="alternateBounds" />
          </mxGeometry>
        </mxCell>
        <mxCell id="NnwOBRZ_t9ozKUxlOf1y-176" value="id" style="ellipse;whiteSpace=wrap;html=1;align=center;fontStyle=4;" parent="1" vertex="1">
          <mxGeometry x="1011" y="590" width="100" height="40" as="geometry" />
        </mxCell>
        <mxCell id="NnwOBRZ_t9ozKUxlOf1y-177" value="content" style="ellipse;whiteSpace=wrap;html=1;align=center;" parent="1" vertex="1">
          <mxGeometry x="1150" y="620" width="100" height="40" as="geometry" />
        </mxCell>
        <mxCell id="NnwOBRZ_t9ozKUxlOf1y-178" value="users_id (FK)" style="ellipse;whiteSpace=wrap;html=1;align=center;" parent="1" vertex="1">
          <mxGeometry x="1170" y="690" width="100" height="40" as="geometry" />
        </mxCell>
        <mxCell id="NnwOBRZ_t9ozKUxlOf1y-179" value="posts_id (FK)" style="ellipse;whiteSpace=wrap;html=1;align=center;" parent="1" vertex="1">
          <mxGeometry x="1131" y="760" width="100" height="40" as="geometry" />
        </mxCell>
        <mxCell id="NnwOBRZ_t9ozKUxlOf1y-180" value="" style="endArrow=none;html=1;rounded=0;exitX=0.5;exitY=0;exitDx=0;exitDy=0;entryX=0.56;entryY=1.059;entryDx=0;entryDy=0;entryPerimeter=0;" parent="1" source="NnwOBRZ_t9ozKUxlOf1y-7" target="NnwOBRZ_t9ozKUxlOf1y-176" edge="1">
          <mxGeometry relative="1" as="geometry">
            <mxPoint x="920" y="570" as="sourcePoint" />
            <mxPoint x="1080" y="570" as="targetPoint" />
          </mxGeometry>
        </mxCell>
        <mxCell id="NnwOBRZ_t9ozKUxlOf1y-181" value="" style="endArrow=none;html=1;rounded=0;exitX=0.995;exitY=0.12;exitDx=0;exitDy=0;exitPerimeter=0;" parent="1" source="NnwOBRZ_t9ozKUxlOf1y-7" target="NnwOBRZ_t9ozKUxlOf1y-177" edge="1">
          <mxGeometry relative="1" as="geometry">
            <mxPoint x="1081" y="680" as="sourcePoint" />
            <mxPoint x="1077" y="642" as="targetPoint" />
          </mxGeometry>
        </mxCell>
        <mxCell id="NnwOBRZ_t9ozKUxlOf1y-182" value="" style="endArrow=none;html=1;rounded=0;exitX=1;exitY=0.5;exitDx=0;exitDy=0;entryX=0.011;entryY=0.3;entryDx=0;entryDy=0;entryPerimeter=0;" parent="1" source="NnwOBRZ_t9ozKUxlOf1y-7" target="NnwOBRZ_t9ozKUxlOf1y-178" edge="1">
          <mxGeometry relative="1" as="geometry">
            <mxPoint x="1140" y="687" as="sourcePoint" />
            <mxPoint x="1180" y="666" as="targetPoint" />
          </mxGeometry>
        </mxCell>
        <mxCell id="NnwOBRZ_t9ozKUxlOf1y-183" value="" style="endArrow=none;html=1;rounded=0;exitX=0.915;exitY=1.016;exitDx=0;exitDy=0;entryX=0.394;entryY=-0.053;entryDx=0;entryDy=0;entryPerimeter=0;exitPerimeter=0;" parent="1" source="NnwOBRZ_t9ozKUxlOf1y-7" target="NnwOBRZ_t9ozKUxlOf1y-179" edge="1">
          <mxGeometry relative="1" as="geometry">
            <mxPoint x="1141" y="710" as="sourcePoint" />
            <mxPoint x="1181" y="712" as="targetPoint" />
          </mxGeometry>
        </mxCell>
        <mxCell id="NnwOBRZ_t9ozKUxlOf1y-197" value="&lt;span style=&quot;font-weight: 400; text-wrap-mode: wrap;&quot;&gt;reports&lt;/span&gt;" style="shape=table;startSize=30;container=1;collapsible=1;childLayout=tableLayout;fixedRows=1;rowLines=0;fontStyle=1;align=center;resizeLast=1;html=1;" parent="1" vertex="1">
          <mxGeometry x="-420" y="210" width="180" height="150" as="geometry" />
        </mxCell>
        <mxCell id="NnwOBRZ_t9ozKUxlOf1y-204" value="" style="shape=tableRow;horizontal=0;startSize=0;swimlaneHead=0;swimlaneBody=0;fillColor=none;collapsible=0;dropTarget=0;points=[[0,0.5],[1,0.5]];portConstraint=eastwest;top=0;left=0;right=0;bottom=1;" parent="NnwOBRZ_t9ozKUxlOf1y-197" vertex="1">
          <mxGeometry y="30" width="180" height="30" as="geometry" />
        </mxCell>
        <mxCell id="NnwOBRZ_t9ozKUxlOf1y-205" value="PK" style="shape=partialRectangle;connectable=0;fillColor=none;top=0;left=0;bottom=0;right=0;fontStyle=1;overflow=hidden;whiteSpace=wrap;html=1;" parent="NnwOBRZ_t9ozKUxlOf1y-204" vertex="1">
          <mxGeometry width="30" height="30" as="geometry">
            <mxRectangle width="30" height="30" as="alternateBounds" />
          </mxGeometry>
        </mxCell>
        <mxCell id="NnwOBRZ_t9ozKUxlOf1y-206" value="id" style="shape=partialRectangle;connectable=0;fillColor=none;top=0;left=0;bottom=0;right=0;align=left;spacingLeft=6;fontStyle=5;overflow=hidden;whiteSpace=wrap;html=1;" parent="NnwOBRZ_t9ozKUxlOf1y-204" vertex="1">
          <mxGeometry x="30" width="150" height="30" as="geometry">
            <mxRectangle width="150" height="30" as="alternateBounds" />
          </mxGeometry>
        </mxCell>
        <mxCell id="NnwOBRZ_t9ozKUxlOf1y-207" value="" style="shape=tableRow;horizontal=0;startSize=0;swimlaneHead=0;swimlaneBody=0;fillColor=none;collapsible=0;dropTarget=0;points=[[0,0.5],[1,0.5]];portConstraint=eastwest;top=0;left=0;right=0;bottom=1;" parent="NnwOBRZ_t9ozKUxlOf1y-197" vertex="1">
          <mxGeometry y="60" width="180" height="30" as="geometry" />
        </mxCell>
        <mxCell id="NnwOBRZ_t9ozKUxlOf1y-208" value="FK" style="shape=partialRectangle;connectable=0;fillColor=none;top=0;left=0;bottom=0;right=0;fontStyle=1;overflow=hidden;whiteSpace=wrap;html=1;" parent="NnwOBRZ_t9ozKUxlOf1y-207" vertex="1">
          <mxGeometry width="30" height="30" as="geometry">
            <mxRectangle width="30" height="30" as="alternateBounds" />
          </mxGeometry>
        </mxCell>
        <mxCell id="NnwOBRZ_t9ozKUxlOf1y-209" value="&lt;span style=&quot;font-weight: 400; text-align: center;&quot;&gt;users_id&lt;/span&gt;" style="shape=partialRectangle;connectable=0;fillColor=none;top=0;left=0;bottom=0;right=0;align=left;spacingLeft=6;fontStyle=5;overflow=hidden;whiteSpace=wrap;html=1;" parent="NnwOBRZ_t9ozKUxlOf1y-207" vertex="1">
          <mxGeometry x="30" width="150" height="30" as="geometry">
            <mxRectangle width="150" height="30" as="alternateBounds" />
          </mxGeometry>
        </mxCell>
        <mxCell id="NnwOBRZ_t9ozKUxlOf1y-198" value="" style="shape=tableRow;horizontal=0;startSize=0;swimlaneHead=0;swimlaneBody=0;fillColor=none;collapsible=0;dropTarget=0;points=[[0,0.5],[1,0.5]];portConstraint=eastwest;top=0;left=0;right=0;bottom=1;" parent="NnwOBRZ_t9ozKUxlOf1y-197" vertex="1">
          <mxGeometry y="90" width="180" height="30" as="geometry" />
        </mxCell>
        <mxCell id="NnwOBRZ_t9ozKUxlOf1y-199" value="FK" style="shape=partialRectangle;connectable=0;fillColor=none;top=0;left=0;bottom=0;right=0;fontStyle=1;overflow=hidden;whiteSpace=wrap;html=1;" parent="NnwOBRZ_t9ozKUxlOf1y-198" vertex="1">
          <mxGeometry width="30" height="30" as="geometry">
            <mxRectangle width="30" height="30" as="alternateBounds" />
          </mxGeometry>
        </mxCell>
        <mxCell id="NnwOBRZ_t9ozKUxlOf1y-200" value="&lt;span style=&quot;font-weight: 400; text-align: center;&quot;&gt;posts_id&lt;/span&gt;" style="shape=partialRectangle;connectable=0;fillColor=none;top=0;left=0;bottom=0;right=0;align=left;spacingLeft=6;fontStyle=5;overflow=hidden;whiteSpace=wrap;html=1;" parent="NnwOBRZ_t9ozKUxlOf1y-198" vertex="1">
          <mxGeometry x="30" width="150" height="30" as="geometry">
            <mxRectangle width="150" height="30" as="alternateBounds" />
          </mxGeometry>
        </mxCell>
        <mxCell id="NnwOBRZ_t9ozKUxlOf1y-201" value="" style="shape=tableRow;horizontal=0;startSize=0;swimlaneHead=0;swimlaneBody=0;fillColor=none;collapsible=0;dropTarget=0;points=[[0,0.5],[1,0.5]];portConstraint=eastwest;top=0;left=0;right=0;bottom=0;" parent="NnwOBRZ_t9ozKUxlOf1y-197" vertex="1">
          <mxGeometry y="120" width="180" height="30" as="geometry" />
        </mxCell>
        <mxCell id="NnwOBRZ_t9ozKUxlOf1y-202" value="" style="shape=partialRectangle;connectable=0;fillColor=none;top=0;left=0;bottom=0;right=0;editable=1;overflow=hidden;whiteSpace=wrap;html=1;" parent="NnwOBRZ_t9ozKUxlOf1y-201" vertex="1">
          <mxGeometry width="30" height="30" as="geometry">
            <mxRectangle width="30" height="30" as="alternateBounds" />
          </mxGeometry>
        </mxCell>
        <mxCell id="NnwOBRZ_t9ozKUxlOf1y-203" value="&lt;span style=&quot;text-align: center;&quot;&gt;content&lt;/span&gt;" style="shape=partialRectangle;connectable=0;fillColor=none;top=0;left=0;bottom=0;right=0;align=left;spacingLeft=6;overflow=hidden;whiteSpace=wrap;html=1;" parent="NnwOBRZ_t9ozKUxlOf1y-201" vertex="1">
          <mxGeometry x="30" width="150" height="30" as="geometry">
            <mxRectangle width="150" height="30" as="alternateBounds" />
          </mxGeometry>
        </mxCell>
        <mxCell id="NnwOBRZ_t9ozKUxlOf1y-210" value="id" style="ellipse;whiteSpace=wrap;html=1;align=center;fontStyle=4;" parent="1" vertex="1">
          <mxGeometry x="1021" y="840" width="100" height="40" as="geometry" />
        </mxCell>
        <mxCell id="NnwOBRZ_t9ozKUxlOf1y-211" value="" style="endArrow=none;html=1;rounded=0;exitX=0.5;exitY=0;exitDx=0;exitDy=0;entryX=0.5;entryY=1;entryDx=0;entryDy=0;" parent="1" source="NnwOBRZ_t9ozKUxlOf1y-8" target="NnwOBRZ_t9ozKUxlOf1y-210" edge="1">
          <mxGeometry relative="1" as="geometry">
            <mxPoint x="1094" y="928" as="sourcePoint" />
            <mxPoint x="1090" y="890" as="targetPoint" />
          </mxGeometry>
        </mxCell>
        <mxCell id="NnwOBRZ_t9ozKUxlOf1y-212" value="users_id (FK)" style="ellipse;whiteSpace=wrap;html=1;align=center;" parent="1" vertex="1">
          <mxGeometry x="1179" y="890" width="100" height="40" as="geometry" />
        </mxCell>
        <mxCell id="NnwOBRZ_t9ozKUxlOf1y-213" value="posts_id (FK)" style="ellipse;whiteSpace=wrap;html=1;align=center;" parent="1" vertex="1">
          <mxGeometry x="1190" y="970" width="100" height="40" as="geometry" />
        </mxCell>
        <mxCell id="NnwOBRZ_t9ozKUxlOf1y-214" value="" style="endArrow=none;html=1;rounded=0;exitX=1;exitY=0.25;exitDx=0;exitDy=0;entryX=0;entryY=0.5;entryDx=0;entryDy=0;" parent="1" source="NnwOBRZ_t9ozKUxlOf1y-8" target="NnwOBRZ_t9ozKUxlOf1y-212" edge="1">
          <mxGeometry relative="1" as="geometry">
            <mxPoint x="1132.44" y="930" as="sourcePoint" />
            <mxPoint x="1191.44" y="901" as="targetPoint" />
          </mxGeometry>
        </mxCell>
        <mxCell id="NnwOBRZ_t9ozKUxlOf1y-215" value="" style="endArrow=none;html=1;rounded=0;exitX=0.994;exitY=0.921;exitDx=0;exitDy=0;entryX=0.036;entryY=0.311;entryDx=0;entryDy=0;entryPerimeter=0;exitPerimeter=0;" parent="1" source="NnwOBRZ_t9ozKUxlOf1y-8" target="NnwOBRZ_t9ozKUxlOf1y-213" edge="1">
          <mxGeometry relative="1" as="geometry">
            <mxPoint x="1131" y="969.8400000000001" as="sourcePoint" />
            <mxPoint x="1192.44" y="947" as="targetPoint" />
          </mxGeometry>
        </mxCell>
        <mxCell id="NnwOBRZ_t9ozKUxlOf1y-217" value="&lt;span style=&quot;font-weight: 400; text-wrap-mode: wrap;&quot;&gt;followers&lt;/span&gt;" style="shape=table;startSize=30;container=1;collapsible=1;childLayout=tableLayout;fixedRows=1;rowLines=0;fontStyle=1;align=center;resizeLast=1;html=1;" parent="1" vertex="1">
          <mxGeometry x="-420" y="420" width="180" height="120" as="geometry" />
        </mxCell>
        <mxCell id="NnwOBRZ_t9ozKUxlOf1y-218" value="" style="shape=tableRow;horizontal=0;startSize=0;swimlaneHead=0;swimlaneBody=0;fillColor=none;collapsible=0;dropTarget=0;points=[[0,0.5],[1,0.5]];portConstraint=eastwest;top=0;left=0;right=0;bottom=1;" parent="NnwOBRZ_t9ozKUxlOf1y-217" vertex="1">
          <mxGeometry y="30" width="180" height="30" as="geometry" />
        </mxCell>
        <mxCell id="NnwOBRZ_t9ozKUxlOf1y-219" value="PK" style="shape=partialRectangle;connectable=0;fillColor=none;top=0;left=0;bottom=0;right=0;fontStyle=1;overflow=hidden;whiteSpace=wrap;html=1;" parent="NnwOBRZ_t9ozKUxlOf1y-218" vertex="1">
          <mxGeometry width="30" height="30" as="geometry">
            <mxRectangle width="30" height="30" as="alternateBounds" />
          </mxGeometry>
        </mxCell>
        <mxCell id="NnwOBRZ_t9ozKUxlOf1y-220" value="id" style="shape=partialRectangle;connectable=0;fillColor=none;top=0;left=0;bottom=0;right=0;align=left;spacingLeft=6;fontStyle=5;overflow=hidden;whiteSpace=wrap;html=1;" parent="NnwOBRZ_t9ozKUxlOf1y-218" vertex="1">
          <mxGeometry x="30" width="150" height="30" as="geometry">
            <mxRectangle width="150" height="30" as="alternateBounds" />
          </mxGeometry>
        </mxCell>
        <mxCell id="NnwOBRZ_t9ozKUxlOf1y-221" value="" style="shape=tableRow;horizontal=0;startSize=0;swimlaneHead=0;swimlaneBody=0;fillColor=none;collapsible=0;dropTarget=0;points=[[0,0.5],[1,0.5]];portConstraint=eastwest;top=0;left=0;right=0;bottom=1;" parent="NnwOBRZ_t9ozKUxlOf1y-217" vertex="1">
          <mxGeometry y="60" width="180" height="30" as="geometry" />
        </mxCell>
        <mxCell id="NnwOBRZ_t9ozKUxlOf1y-222" value="FK" style="shape=partialRectangle;connectable=0;fillColor=none;top=0;left=0;bottom=0;right=0;fontStyle=1;overflow=hidden;whiteSpace=wrap;html=1;" parent="NnwOBRZ_t9ozKUxlOf1y-221" vertex="1">
          <mxGeometry width="30" height="30" as="geometry">
            <mxRectangle width="30" height="30" as="alternateBounds" />
          </mxGeometry>
        </mxCell>
        <mxCell id="NnwOBRZ_t9ozKUxlOf1y-223" value="&lt;span style=&quot;font-weight: 400; text-align: center;&quot;&gt;users_id&lt;/span&gt;" style="shape=partialRectangle;connectable=0;fillColor=none;top=0;left=0;bottom=0;right=0;align=left;spacingLeft=6;fontStyle=5;overflow=hidden;whiteSpace=wrap;html=1;" parent="NnwOBRZ_t9ozKUxlOf1y-221" vertex="1">
          <mxGeometry x="30" width="150" height="30" as="geometry">
            <mxRectangle width="150" height="30" as="alternateBounds" />
          </mxGeometry>
        </mxCell>
        <mxCell id="NnwOBRZ_t9ozKUxlOf1y-224" value="" style="shape=tableRow;horizontal=0;startSize=0;swimlaneHead=0;swimlaneBody=0;fillColor=none;collapsible=0;dropTarget=0;points=[[0,0.5],[1,0.5]];portConstraint=eastwest;top=0;left=0;right=0;bottom=1;" parent="NnwOBRZ_t9ozKUxlOf1y-217" vertex="1">
          <mxGeometry y="90" width="180" height="30" as="geometry" />
        </mxCell>
        <mxCell id="NnwOBRZ_t9ozKUxlOf1y-225" value="FK" style="shape=partialRectangle;connectable=0;fillColor=none;top=0;left=0;bottom=0;right=0;fontStyle=1;overflow=hidden;whiteSpace=wrap;html=1;" parent="NnwOBRZ_t9ozKUxlOf1y-224" vertex="1">
          <mxGeometry width="30" height="30" as="geometry">
            <mxRectangle width="30" height="30" as="alternateBounds" />
          </mxGeometry>
        </mxCell>
        <mxCell id="NnwOBRZ_t9ozKUxlOf1y-226" value="&lt;span style=&quot;font-weight: 400; text-align: center;&quot;&gt;posts_id&lt;/span&gt;" style="shape=partialRectangle;connectable=0;fillColor=none;top=0;left=0;bottom=0;right=0;align=left;spacingLeft=6;fontStyle=5;overflow=hidden;whiteSpace=wrap;html=1;" parent="NnwOBRZ_t9ozKUxlOf1y-224" vertex="1">
          <mxGeometry x="30" width="150" height="30" as="geometry">
            <mxRectangle width="150" height="30" as="alternateBounds" />
          </mxGeometry>
        </mxCell>
        <mxCell id="NnwOBRZ_t9ozKUxlOf1y-227" value="posts_hashtags" style="rounded=0;whiteSpace=wrap;html=1;" parent="1" vertex="1">
          <mxGeometry x="1690" y="870" width="120" height="60" as="geometry" />
        </mxCell>
        <mxCell id="NnwOBRZ_t9ozKUxlOf1y-228" value="&lt;span style=&quot;font-weight: 400; text-wrap-mode: wrap;&quot;&gt;posts_hashtags&lt;/span&gt;" style="shape=table;startSize=30;container=1;collapsible=1;childLayout=tableLayout;fixedRows=1;rowLines=0;fontStyle=1;align=center;resizeLast=1;html=1;" parent="1" vertex="1">
          <mxGeometry x="-420" y="590" width="180" height="120" as="geometry" />
        </mxCell>
        <mxCell id="NnwOBRZ_t9ozKUxlOf1y-229" value="" style="shape=tableRow;horizontal=0;startSize=0;swimlaneHead=0;swimlaneBody=0;fillColor=none;collapsible=0;dropTarget=0;points=[[0,0.5],[1,0.5]];portConstraint=eastwest;top=0;left=0;right=0;bottom=1;" parent="NnwOBRZ_t9ozKUxlOf1y-228" vertex="1">
          <mxGeometry y="30" width="180" height="30" as="geometry" />
        </mxCell>
        <mxCell id="NnwOBRZ_t9ozKUxlOf1y-230" value="PK" style="shape=partialRectangle;connectable=0;fillColor=none;top=0;left=0;bottom=0;right=0;fontStyle=1;overflow=hidden;whiteSpace=wrap;html=1;" parent="NnwOBRZ_t9ozKUxlOf1y-229" vertex="1">
          <mxGeometry width="30" height="30" as="geometry">
            <mxRectangle width="30" height="30" as="alternateBounds" />
          </mxGeometry>
        </mxCell>
        <mxCell id="NnwOBRZ_t9ozKUxlOf1y-231" value="id" style="shape=partialRectangle;connectable=0;fillColor=none;top=0;left=0;bottom=0;right=0;align=left;spacingLeft=6;fontStyle=5;overflow=hidden;whiteSpace=wrap;html=1;" parent="NnwOBRZ_t9ozKUxlOf1y-229" vertex="1">
          <mxGeometry x="30" width="150" height="30" as="geometry">
            <mxRectangle width="150" height="30" as="alternateBounds" />
          </mxGeometry>
        </mxCell>
        <mxCell id="NnwOBRZ_t9ozKUxlOf1y-232" value="" style="shape=tableRow;horizontal=0;startSize=0;swimlaneHead=0;swimlaneBody=0;fillColor=none;collapsible=0;dropTarget=0;points=[[0,0.5],[1,0.5]];portConstraint=eastwest;top=0;left=0;right=0;bottom=1;" parent="NnwOBRZ_t9ozKUxlOf1y-228" vertex="1">
          <mxGeometry y="60" width="180" height="30" as="geometry" />
        </mxCell>
        <mxCell id="NnwOBRZ_t9ozKUxlOf1y-233" value="FK" style="shape=partialRectangle;connectable=0;fillColor=none;top=0;left=0;bottom=0;right=0;fontStyle=1;overflow=hidden;whiteSpace=wrap;html=1;" parent="NnwOBRZ_t9ozKUxlOf1y-232" vertex="1">
          <mxGeometry width="30" height="30" as="geometry">
            <mxRectangle width="30" height="30" as="alternateBounds" />
          </mxGeometry>
        </mxCell>
        <mxCell id="NnwOBRZ_t9ozKUxlOf1y-234" value="&lt;span style=&quot;font-weight: 400; text-align: center;&quot;&gt;users_id&lt;/span&gt;" style="shape=partialRectangle;connectable=0;fillColor=none;top=0;left=0;bottom=0;right=0;align=left;spacingLeft=6;fontStyle=5;overflow=hidden;whiteSpace=wrap;html=1;" parent="NnwOBRZ_t9ozKUxlOf1y-232" vertex="1">
          <mxGeometry x="30" width="150" height="30" as="geometry">
            <mxRectangle width="150" height="30" as="alternateBounds" />
          </mxGeometry>
        </mxCell>
        <mxCell id="NnwOBRZ_t9ozKUxlOf1y-235" value="" style="shape=tableRow;horizontal=0;startSize=0;swimlaneHead=0;swimlaneBody=0;fillColor=none;collapsible=0;dropTarget=0;points=[[0,0.5],[1,0.5]];portConstraint=eastwest;top=0;left=0;right=0;bottom=1;" parent="NnwOBRZ_t9ozKUxlOf1y-228" vertex="1">
          <mxGeometry y="90" width="180" height="30" as="geometry" />
        </mxCell>
        <mxCell id="NnwOBRZ_t9ozKUxlOf1y-236" value="FK" style="shape=partialRectangle;connectable=0;fillColor=none;top=0;left=0;bottom=0;right=0;fontStyle=1;overflow=hidden;whiteSpace=wrap;html=1;" parent="NnwOBRZ_t9ozKUxlOf1y-235" vertex="1">
          <mxGeometry width="30" height="30" as="geometry">
            <mxRectangle width="30" height="30" as="alternateBounds" />
          </mxGeometry>
        </mxCell>
        <mxCell id="NnwOBRZ_t9ozKUxlOf1y-237" value="&lt;span style=&quot;font-weight: 400; text-align: center;&quot;&gt;hashtags_id&lt;/span&gt;" style="shape=partialRectangle;connectable=0;fillColor=none;top=0;left=0;bottom=0;right=0;align=left;spacingLeft=6;fontStyle=5;overflow=hidden;whiteSpace=wrap;html=1;" parent="NnwOBRZ_t9ozKUxlOf1y-235" vertex="1">
          <mxGeometry x="30" width="150" height="30" as="geometry">
            <mxRectangle width="150" height="30" as="alternateBounds" />
          </mxGeometry>
        </mxCell>
        <mxCell id="NnwOBRZ_t9ozKUxlOf1y-238" value="id" style="ellipse;whiteSpace=wrap;html=1;align=center;fontStyle=4;" parent="1" vertex="1">
          <mxGeometry x="1730" y="985" width="100" height="40" as="geometry" />
        </mxCell>
        <mxCell id="NnwOBRZ_t9ozKUxlOf1y-239" value="" style="endArrow=none;html=1;rounded=0;exitX=0.5;exitY=0;exitDx=0;exitDy=0;entryX=0.5;entryY=1;entryDx=0;entryDy=0;" parent="1" source="NnwOBRZ_t9ozKUxlOf1y-238" target="NnwOBRZ_t9ozKUxlOf1y-227" edge="1">
          <mxGeometry relative="1" as="geometry">
            <mxPoint x="1270" y="980" as="sourcePoint" />
            <mxPoint x="1270" y="940" as="targetPoint" />
          </mxGeometry>
        </mxCell>
        <mxCell id="NnwOBRZ_t9ozKUxlOf1y-240" value="users_id (FK)" style="ellipse;whiteSpace=wrap;html=1;align=center;" parent="1" vertex="1">
          <mxGeometry x="1550" y="870" width="100" height="40" as="geometry" />
        </mxCell>
        <mxCell id="NnwOBRZ_t9ozKUxlOf1y-241" value="hashtags_id (FK)" style="ellipse;whiteSpace=wrap;html=1;align=center;" parent="1" vertex="1">
          <mxGeometry x="1570" y="980" width="100" height="40" as="geometry" />
        </mxCell>
        <mxCell id="NnwOBRZ_t9ozKUxlOf1y-242" value="" style="endArrow=none;html=1;rounded=0;exitX=0.968;exitY=0.335;exitDx=0;exitDy=0;entryX=0;entryY=0.25;entryDx=0;entryDy=0;exitPerimeter=0;" parent="1" source="NnwOBRZ_t9ozKUxlOf1y-240" target="NnwOBRZ_t9ozKUxlOf1y-227" edge="1">
          <mxGeometry relative="1" as="geometry">
            <mxPoint x="1361" y="895" as="sourcePoint" />
            <mxPoint x="1420" y="910" as="targetPoint" />
          </mxGeometry>
        </mxCell>
        <mxCell id="NnwOBRZ_t9ozKUxlOf1y-243" value="" style="endArrow=none;html=1;rounded=0;exitX=0.108;exitY=1.006;exitDx=0;exitDy=0;exitPerimeter=0;entryX=0.811;entryY=0.031;entryDx=0;entryDy=0;entryPerimeter=0;" parent="1" source="NnwOBRZ_t9ozKUxlOf1y-227" target="NnwOBRZ_t9ozKUxlOf1y-241" edge="1">
          <mxGeometry relative="1" as="geometry">
            <mxPoint x="1360" y="935" as="sourcePoint" />
            <mxPoint x="1430" y="910" as="targetPoint" />
          </mxGeometry>
        </mxCell>
      </root>
    </mxGraphModel>
  </diagram>
</mxfile>
